<?xml version="1.0" encoding="UTF-8"?>
<!-- Generator: visioncortex VTracer -->
<svg id="svg" version="1.1" xmlns="http://www.w3.org/2000/svg" style="display: block;" viewBox="0 0 1254 1254"><path d="M0,0 L4,1 L1,11 L-15,54 L-27,85 L-45,131 L-56,159 L-71,198 L-73,201 L-92,209 L-120,220 L-149,233 L-165,241 L-188,253 L-209,265 L-231,278 L-250,290 L-262,298 L-263,300 L-228,289 L-210,283 L-179,274 L-146,265 L-102,254 L-96,254 L-97,259 L-115,300 L-122,316 L-138,352 L-151,381 L-158,397 L-176,436 L-184,453 L-192,458 L-208,466 L-233,477 L-247,483 L-273,494 L-307,508 L-342,522 L-354,527 L-356,527 L-356,529 L-326,526 L-255,519 L-234,517 L-219,517 L-221,523 L-234,546 L-245,564 L-259,585 L-269,598 L-278,610 L-287,621 L-300,636 L-312,649 L-319,656 L-327,663 L-337,672 L-348,681 L-366,695 L-386,708 L-401,717 L-419,727 L-444,739 L-471,750 L-507,762 L-545,772 L-556,775 L-564,788 L-577,812 L-589,835 L-599,854 L-614,885 L-620,899 L-624,924 L-632,983 L-636,1019 L-661,1036 L-674,1046 L-688,1058 L-703,1072 L-718,1087 L-725,1095 L-737,1107 L-744,1115 L-760,1132 L-769,1142 L-775,1147 L-774,1138 L-767,1103 L-761,1059 L-759,1034 L-759,966 L-752,958 L-737,942 L-726,930 L-717,919 L-713,915 L-711,915 L-712,921 L-721,950 L-724,963 L-725,969 L-725,988 L-721,997 L-717,1002 L-710,1006 L-705,1007 L-698,1007 L-690,1004 L-684,999 L-680,989 L-680,979 L-683,971 L-691,964 L-697,962 L-704,961 L-701,952 L-677,904 L-667,885 L-652,856 L-643,840 L-636,829 L-624,812 L-615,797 L-613,793 L-614,772 L-604,766 L-600,765 L-598,760 L-585,735 L-572,712 L-561,691 L-548,668 L-533,641 L-519,617 L-506,595 L-497,580 L-484,559 L-472,540 L-459,520 L-452,509 L-440,491 L-432,479 L-422,465 L-412,451 L-402,437 L-388,418 L-376,402 L-365,388 L-354,374 L-340,356 L-329,343 L-320,332 L-308,318 L-299,307 L-298,304 L-313,314 L-326,324 L-341,336 L-352,345 L-363,355 L-371,362 L-381,371 L-395,385 L-402,393 L-417,409 L-426,420 L-437,433 L-446,444 L-458,459 L-468,472 L-482,491 L-493,506 L-505,523 L-529,559 L-545,584 L-562,612 L-576,636 L-588,657 L-603,684 L-616,708 L-629,733 L-639,752 L-660,793 L-669,812 L-672,812 L-671,799 L-667,775 L-657,718 L-650,683 L-640,640 L-630,602 L-621,571 L-608,533 L-594,497 L-583,472 L-573,450 L-563,431 L-552,410 L-536,383 L-524,364 L-509,342 L-499,328 L-487,312 L-479,302 L-468,288 L-455,273 L-446,263 L-439,255 L-429,245 L-422,237 L-396,211 L-388,204 L-373,190 L-365,183 L-352,172 L-335,158 L-318,145 L-299,131 L-266,109 L-247,97 L-225,84 L-196,68 L-172,56 L-152,47 L-128,37 L-107,29 L-88,22 L-55,12 L-22,4 Z " transform="translate(1007,41)" style="fill: #000000;"/></svg>